<svg width="1459" height="57" viewBox="0 0 1459 57" fill="none" xmlns="http://www.w3.org/2000/svg">
<path d="M3 38.8604C18.6528 37.2896 34.3391 35.8068 50.0207 34.6075C66.9657 33.3115 79.8375 29.2659 95.8306 23.9751C101.664 22.0454 106.351 21.636 112.379 21.636C127.16 21.636 137.932 9.0118 151.832 4.94328C171.199 -0.725482 182.195 6.87899 198.852 16.5325C209.484 22.6938 222.567 31.386 235.278 28.7597C248.784 25.9693 265.851 8.48875 279.575 11.0037C299.52 14.6588 312.579 38.8661 329.521 49.0674C341.141 56.0639 364.427 39.7121 376.542 37.7972C394.423 34.9709 411.663 36.6171 428.002 44.6018C445.836 53.3169 463.354 53.6809 482.894 51.4065C500.255 49.3856 528.246 35.0933 545.151 44.9208C555.668 51.0351 562.942 52.2571 574.816 52.2571C591.94 52.2571 609.354 44.9347 626.175 47.6852C641.129 50.1302 652.296 55.4243 668.05 53.6393C701.889 49.8052 737.501 30.5183 771.879 35.458C785.591 37.4283 797.261 40.1825 811.433 37.1592C834.399 32.2598 856.691 20.5767 880.652 21.636C900.777 22.5258 914.709 44.6018 934.736 44.6018C958.932 44.6018 980.296 29.6115 1005.47 34.3948C1019.59 37.0786 1029.93 43.1209 1045.02 42.5817C1066.44 41.8168 1087.92 33.8877 1109.3 35.1391C1128.2 36.2458 1145.7 36.9029 1164.29 31.4178C1173.67 28.6502 1181.82 27.9794 1190.42 33.7569C1202.44 41.8265 1207.31 46.6758 1221.3 46.5157C1232.67 46.3855 1243.77 44.3428 1255.2 44.6018C1270.17 44.941 1284.36 50.5949 1299.4 50.3433C1308.49 50.1912 1318.23 49.5822 1326.44 45.0271C1330.21 42.9366 1330.82 40.7742 1335.22 40.7742C1349.05 40.7742 1361.44 43.1384 1375.18 45.3461C1393.72 48.3264 1413.4 46.5157 1432.09 46.5157C1437.93 46.5157 1453.56 42.6369 1456 50.3433" stroke="#FFB9B9" stroke-width="6" stroke-linecap="round" stroke-linejoin="round"/>
</svg>
