<svg width="115" height="107" viewBox="0 0 115 107" fill="none" xmlns="http://www.w3.org/2000/svg">
<path d="M113 68.0419C112.885 67.5445 112.766 67.0538 112.644 66.5698C112.644 66.5698 112.644 66.5697 112.644 66.5697C112.643 66.5696 112.643 66.5695 112.643 66.5694C112.643 66.5692 112.643 66.5691 112.643 66.5689C112.643 66.5687 112.642 66.5685 112.642 66.5683C111.098 60.4427 109.016 55.4196 106.551 51.3225L100.02 49.4449L104.943 48.8569C102.953 46.0349 100.759 43.7232 98.4285 41.8471L86.4319 42.9929L95.487 39.7497C78.8458 29.2882 57.0285 37.691 51.0835 40.3319C50.2681 40.6927 49.7521 40.9472 49.5869 41.0291C49.5852 41.0291 49.5852 41.0291 49.5835 41.0306C49.5474 41.0493 49.5302 41.0579 49.5302 41.0579L52.9052 42.5228H52.9069L112.845 68.5422L113 68.0419Z" fill="#FFB9B9"/>
<path d="M113 68.0419C113.078 67.7845 113.152 67.5267 113.222 67.2684C113.047 67.0542 112.854 66.8199 112.644 66.5698C112.644 66.5698 112.644 66.5698 112.644 66.5698C112.644 66.5697 112.643 66.5695 112.643 66.5694C112.643 66.5695 112.643 66.5692 112.643 66.5694C112.643 66.5692 112.642 66.5685 112.642 66.5683C105.731 58.3092 80.3957 31.3224 51.2125 40.4828H51.2108C50.6707 40.6525 50.1294 40.8346 49.5869 41.0291C49.5852 41.0291 49.5852 41.0291 49.5835 41.0306C49.0898 41.2074 48.5955 41.3952 48.1007 41.5941C47.8495 41.6933 47.6001 41.7968 47.349 41.9018C47.1305 41.9938 46.9137 42.0872 46.6953 42.1835C46.6953 42.1835 45.4533 42.4437 44.0617 43.4242C41.3283 45.3535 38.0152 50.0674 42.4051 61.0738C42.4051 61.0738 46.3031 70.1926 44.3541 74.4278C42.4051 78.6601 54.4895 83.5451 57.9935 74.4278C61.501 65.3075 62.6725 56.5137 62.6725 56.5137C62.6725 56.5137 66.7046 63.614 66.3072 70.7345C66.1438 73.6529 66.4552 76.5741 67.3961 79.3846C67.4924 79.6794 67.5974 79.9741 67.7023 80.2731C68.9701 83.8312 70.9483 88.4085 73.8623 92.8349C75.2352 94.9442 76.82 96.9521 78.5997 98.837C80.9313 98.2039 83.2055 97.4318 85.4048 96.5267C92.1066 93.7726 98.0238 89.8496 102.757 85.0221C107.491 80.1946 110.931 74.575 112.845 68.5422L113 68.0419Z" fill="#FFB9B9"/>
<path d="M47.8628 45.4405L46.304 34.6928L52.929 42.5093L47.8628 45.4405Z" fill="#A6F6F1"/>
<path d="M44.4659 46.2148L42.907 35.4671L49.5321 43.2835L44.4659 46.2148Z" fill="#A6F6F1"/>
<path d="M41.0726 56.2298L24.4273 38.1481L41.2854 50.7991L41.0726 56.2298Z" fill="#A6F6F1"/>
</svg>
