<svg width="252" height="157" viewBox="0 0 252 157" fill="none" xmlns="http://www.w3.org/2000/svg">
<g filter="url(#filter0_d)">
<g clip-path="url(#clip0)">
<path d="M60.0845 61.8097C69.8681 61.8097 77.7993 53.8906 77.7993 44.1218C77.7993 34.353 69.8681 26.4338 60.0845 26.4338C50.3009 26.4338 42.3698 34.353 42.3698 44.1218C42.3698 53.8906 50.3009 61.8097 60.0845 61.8097Z" fill="#A6F6F1"/>
<path d="M235.667 125.83C234.625 126.766 233.53 127.64 232.386 128.448C229.67 130.355 226.736 131.93 223.646 133.14C210.802 132.831 191.922 131.258 168.089 130.419C166.311 129.812 164.493 129.155 162.635 128.448C160.175 127.512 157.645 126.484 155.044 125.363C144.242 120.702 133.152 117.673 122.167 115.863C119.806 115.474 117.452 115.141 115.103 114.863C65.4978 108.94 19.7525 126.344 14.4545 128.448H13.9437L17.2024 122.146L72.6496 14.916L85.6165 48.1571L89.7547 58.7678L101.16 43.1407L107.049 35.0721L133.869 65.7731L141.449 49.0579L193.93 91.8217L196.857 94.2055L199.819 96.6201L200.763 97.3893L228.82 120.252L235.667 125.83Z" fill="#FFB9B9"/>
<path opacity="0.1" d="M67.706 36.5119L73.0616 24.7885L80.4771 41.8594L74.0916 29.519L67.706 36.5119Z" fill="black"/>
<path opacity="0.1" d="M122.167 115.863C119.806 115.474 117.452 115.141 115.103 114.863L89.7547 58.7678L122.167 115.863Z" fill="black"/>
<path opacity="0.1" d="M101.16 43.1406L107.049 38.5686L133.827 69.4198L106.637 43.0935L101.16 43.1406Z" fill="black"/>
<path opacity="0.1" d="M133.868 65.7723L187.384 116.931L180.064 118.654L133.868 65.7723Z" fill="black"/>
<path d="M243 128.551C243 132.535 236.211 133.442 223.646 133.14C210.802 132.831 191.922 131.258 168.089 130.419C159.075 130.102 149.351 129.888 138.977 129.888C74.3593 129.888 9 138.15 9 128.551C9 126.289 11.9085 124.129 17.2024 122.146C32.8985 116.268 69.5599 111.963 113.48 111.27C115.478 111.237 117.491 111.213 119.518 111.198C121.664 111.18 123.825 111.171 126 111.172C143.461 111.172 160.031 111.739 174.913 112.757C174.961 112.761 175.006 112.765 175.053 112.768C176.248 112.85 177.431 112.935 178.603 113.023C179.882 113.119 181.147 113.219 182.399 113.321C182.656 113.341 182.914 113.362 183.169 113.385C183.355 113.399 183.54 113.415 183.723 113.432C184.061 113.459 184.399 113.487 184.733 113.518C184.744 113.518 184.756 113.519 184.768 113.52C185.382 113.574 185.991 113.627 186.597 113.681C186.661 113.687 186.725 113.693 186.789 113.697C204.39 115.291 218.937 117.556 228.82 120.252C237.863 122.718 243 125.544 243 128.551Z" fill="#FFE3ED"/>
<path d="M23.6017 94.2362C23.6017 107.403 31.8742 118.057 42.0973 118.057L23.6017 94.2362Z" fill="#A6F6F1"/>
<path d="M42.0973 118.057C42.0973 104.742 51.3289 93.9686 62.7374 93.9686L42.0973 118.057Z" fill="#A6F6F1"/>
<path d="M30.303 95.4298C30.303 107.937 35.5782 118.057 42.0973 118.057L30.303 95.4298Z" fill="#A6F6F1"/>
<path d="M42.0973 118.057C42.0973 101.044 52.7676 87.2774 65.954 87.2774L42.0973 118.057Z" fill="#A6F6F1"/>
<path d="M38.2063 118.225C38.2063 118.225 40.8293 118.144 41.6198 117.582C42.4103 117.02 45.6546 116.349 45.8507 117.25C46.0468 118.152 49.7926 121.733 46.8312 121.757C43.8699 121.781 39.9504 121.297 39.1614 120.817C38.3724 120.337 38.2063 118.225 38.2063 118.225Z" fill="#FFB9B9"/>
<path opacity="0.2" d="M46.8841 121.444C43.9227 121.467 40.0032 120.983 39.2143 120.503C38.6134 120.138 38.374 118.826 38.2939 118.221C38.2384 118.224 38.2063 118.225 38.2063 118.225C38.2063 118.225 38.3724 120.337 39.1614 120.817C39.9504 121.297 43.8699 121.781 46.8312 121.757C47.6861 121.75 47.9813 121.447 47.9651 120.997C47.8464 121.269 47.5203 121.438 46.8841 121.444Z" fill="black"/>
<path d="M166.144 92.3851C166.144 105.552 174.416 116.206 184.64 116.206L166.144 92.3851Z" fill="#A6F6F1"/>
<path d="M184.64 116.206C184.64 102.891 193.871 92.1175 205.28 92.1175L184.64 116.206Z" fill="#A6F6F1"/>
<path d="M172.845 93.5787C172.845 106.085 178.12 116.206 184.64 116.206L172.845 93.5787Z" fill="#A6F6F1"/>
<path d="M184.64 116.206C184.64 99.1929 195.31 85.4263 208.496 85.4263L184.64 116.206Z" fill="#A6F6F1"/>
<path d="M180.749 116.374C180.749 116.374 183.372 116.293 184.162 115.731C184.953 115.169 188.197 114.498 188.393 115.399C188.589 116.301 192.335 119.882 189.373 119.906C186.412 119.93 182.493 119.446 181.704 118.966C180.915 118.486 180.749 116.374 180.749 116.374Z" fill="#FFB9B9"/>
<path opacity="0.2" d="M189.426 119.592C186.465 119.616 182.545 119.132 181.757 118.652C181.156 118.287 180.916 116.975 180.836 116.37C180.781 116.373 180.749 116.374 180.749 116.374C180.749 116.374 180.915 118.486 181.704 118.966C182.493 119.446 186.412 119.93 189.373 119.906C190.228 119.899 190.524 119.596 190.507 119.146C190.389 119.418 190.063 119.587 189.426 119.592Z" fill="#A6F6F1"/>
<path d="M111.787 90.5952H108.079V97.1946H111.787V90.5952Z" fill="#2F2E41"/>
<path d="M109.933 93.0901C110.334 93.0901 110.659 92.7658 110.659 92.3657C110.659 91.9657 110.334 91.6414 109.933 91.6414C109.532 91.6414 109.208 91.9657 109.208 92.3657C109.208 92.7658 109.532 93.0901 109.933 93.0901Z" fill="#F2F2F2"/>
<path d="M110.383 84.9556C110.383 84.9556 109.254 91.4908 111.285 91.7162C113.317 91.9415 111.511 84.7302 111.511 84.7302L110.383 84.9556Z" fill="#FFACAC"/>
<path d="M111.737 62.6454C111.737 62.6454 109.367 85.0682 110.044 85.4063C110.721 85.7443 112.527 86.195 112.865 85.857C113.204 85.519 114.558 71.6596 114.558 71.6596L113.542 64.4483L111.737 62.6454Z" fill="#FFE3ED"/>
<path opacity="0.1" d="M111.745 62.4859C111.745 62.4859 109.346 89.6677 110.032 90.0775C110.717 90.4873 112.545 91.0336 112.888 90.6239C113.231 90.2141 114.602 73.4133 114.602 73.4133L113.573 64.6714L111.745 62.4859Z" fill="#FFE3ED"/>
<path d="M123.191 52.5608H116.081V60.2229H123.191V52.5608Z" fill="#2F2E41"/>
<path d="M117.718 55.9975C117.718 55.9975 117.492 60.9553 115.912 61.2933C114.332 61.6313 117.379 67.3779 117.379 67.3779L122.119 66.9272L123.247 60.1665C123.247 60.1665 120.652 59.7158 121.555 56.2228L117.718 55.9975Z" fill="#FFB9B9"/>
<path opacity="0.1" d="M117.718 55.9975C117.718 55.9975 117.492 60.9553 115.912 61.2933C114.332 61.6313 117.379 67.3779 117.379 67.3779L122.119 66.9272L123.247 60.1665C123.247 60.1665 120.652 59.7158 121.555 56.2228L117.718 55.9975Z" fill="black"/>
<path d="M117.943 112.674L118.282 114.59L120.313 114.139L119.862 112.223L117.943 112.674Z" fill="#FFB9B9"/>
<path d="M124.376 109.745L123.699 111.773L125.843 112.899L125.956 111.209L124.376 109.745Z" fill="#FFB9B9"/>
<path d="M115.574 79.3217C115.574 79.3217 112.865 87.2091 113.43 90.9275C113.994 94.6458 116.251 112.336 116.251 112.336C116.251 112.336 118.846 114.026 120.426 112.111L119.298 97.0121C119.298 97.0121 119.523 87.8852 120.426 88.7866C121.329 89.688 124.827 100.28 124.827 100.28L124.15 109.857C124.15 109.857 124.489 112.787 126.52 111.547L129.341 100.956C129.341 100.956 128.438 86.7584 127.987 86.195C127.536 85.6316 124.601 79.0963 124.601 79.0963L115.574 79.3217Z" fill="#FFE3ED"/>
<path d="M120.031 58.1947C121.839 58.1947 123.304 56.7317 123.304 54.927C123.304 53.1223 121.839 51.6594 120.031 51.6594C118.224 51.6594 116.759 53.1223 116.759 54.927C116.759 56.7317 118.224 58.1947 120.031 58.1947Z" fill="#FFB9B9"/>
<path d="M116.702 62.9835C116.702 62.9835 117.943 64.7863 119.523 63.5469C121.103 62.3074 122.006 62.1947 122.006 62.1947L123.924 63.3215L123.473 67.7159L124.15 79.8851C124.15 79.8851 115.912 80.5611 115.461 79.6597C115.009 78.7583 116.025 74.9273 116.025 74.9273L114.558 66.7018V62.9835H116.702Z" fill="#FFE3ED"/>
<path d="M119.298 66.2511C119.298 66.2511 117.266 60.0539 116.589 59.9412C115.912 59.8285 113.994 61.1806 113.994 61.1806C113.994 61.1806 111.173 62.082 111.173 62.6454C111.173 63.2088 111.624 63.2088 111.624 63.2088L113.204 66.2511C113.204 66.2511 113.881 68.9554 113.655 70.7582C113.519 71.8418 113.481 72.9355 113.542 74.0259C113.542 74.0259 111.06 88.8993 112.301 89.35C113.542 89.8007 113.542 90.2514 113.542 90.2514C113.542 90.2514 115.348 91.2655 115.687 90.8148C116.025 90.3641 119.298 70.9836 119.298 70.9836C119.298 70.9836 120.99 67.7159 119.298 66.2511Z" fill="#FFE3ED"/>
<path d="M119.749 66.2511C119.749 66.2511 120.765 63.8849 120.2 62.3074C120.2 62.3074 120.765 62.1947 120.99 61.8567C121.216 61.5187 120.99 59.8285 121.555 59.7158C122.119 59.6032 126.294 59.7158 126.52 59.9412C126.746 60.1665 127.423 61.744 127.423 61.744H127.084L124.602 65.8004C124.602 65.8004 125.843 73.4625 125.617 74.7019C125.391 75.9414 128.89 81.1245 129.341 81.4626C129.793 81.8006 131.824 87.2091 130.921 87.7725C130.018 88.3359 122.119 91.9416 121.78 90.1387C121.442 88.3359 119.072 77.5189 119.072 77.5189C119.072 77.5189 118.959 71.547 119.298 70.0822C119.636 68.6174 119.749 66.2511 119.749 66.2511Z" fill="#FFE3ED"/>
<path d="M125.053 84.2795C125.053 84.2795 122.683 92.0542 125.053 91.7162C127.423 91.3782 126.858 84.0541 126.858 84.0541L125.053 84.2795Z" fill="#FFB9B9"/>
<path d="M120.093 114.143C120.093 114.143 121.964 114.677 121.83 115.878C121.788 116.227 121.655 116.558 121.444 116.839C121.233 117.121 120.951 117.341 120.627 117.479C120.431 117.606 120.277 117.787 120.182 118C120.087 118.213 120.056 118.449 120.093 118.68C120.226 119.48 119.023 120.681 117.019 120.148C115.014 119.614 115.415 119.08 115.415 119.08C115.524 118.488 115.86 117.962 116.351 117.612C117.153 117.079 118.088 115.21 118.088 115.077C118.088 114.944 118.355 114.01 118.355 114.01C118.355 114.01 119.424 113.342 120.093 114.143Z" fill="#2F2E41"/>
<path d="M124.037 111.547C124.037 111.547 122.006 112.449 122.457 113.576C122.909 114.702 124.376 116.28 124.601 117.97C124.827 119.66 126.746 121.125 128.1 120.224C129.454 119.322 127.874 117.519 127.874 117.519C127.874 117.519 126.181 114.364 126.068 113.688C125.956 113.012 126.294 112.336 125.617 112.111C124.94 111.885 124.037 111.547 124.037 111.547Z" fill="#2F2E41"/>
<path opacity="0.1" d="M127.028 62.9271C127.028 62.9271 126.746 61.6313 127.084 62.4201C127.423 63.2088 129.905 72.7864 127.648 78.533C127.648 78.533 127.423 85.6316 127.197 85.6316C126.971 85.6316 124.263 85.519 124.376 84.7302C124.489 83.9415 124.714 71.2089 124.714 70.4202C124.714 69.6314 125.109 64.5046 125.109 64.5046L127.028 62.9271Z" fill="black"/>
<path d="M126.52 60.9553C126.882 61.4035 127.185 61.8957 127.423 62.4201C127.761 63.2088 130.244 72.7864 127.987 78.533C127.987 78.533 127.761 85.6316 127.536 85.6316C127.31 85.6316 124.601 85.519 124.714 84.7302C124.827 83.9415 125.053 71.2089 125.053 70.4202C125.053 69.6314 124.376 64.3356 124.376 64.3356L126.52 60.9553Z" fill="#FFE3ED"/>
<path d="M118.186 49.1742C117.002 49.5438 116.118 50.5097 115.294 51.4357C114.974 51.7631 114.702 52.1346 114.487 52.539C114.278 53.0545 114.167 53.6047 114.161 54.1609C114.106 55.023 114.089 55.8864 114.108 56.7511C114.127 57.5794 114.178 58.4285 113.923 59.2169C113.677 59.9792 113.163 60.6235 112.811 61.3431C112.249 62.491 112.119 63.8839 112.638 65.0519C112.924 65.6947 113.386 66.2419 113.732 66.8549C114.342 67.9464 114.569 69.2112 114.374 70.4464L115.999 68.3446C117.04 66.9983 118.114 65.5798 118.407 63.9044C118.831 61.4743 117.533 59.0942 117.277 56.6407C117.205 55.9565 117.229 55.2177 117.617 54.6492C118.19 53.81 119.435 53.5136 119.779 52.5581C119.829 52.9583 122.229 54.2325 122.518 53.9846C122.696 54.4637 122.748 54.9803 122.668 55.485C122.589 55.9896 122.381 56.4655 122.065 56.8671C121.832 57.1551 121.547 57.3975 121.32 57.69C120.733 58.4477 120.6 59.4694 120.683 60.4237C120.766 61.378 121.041 62.3047 121.186 63.2515C121.309 64.1942 121.368 65.1442 121.362 66.0948C121.373 66.7529 121.355 67.4872 120.892 67.9565C121.65 67.6912 122.343 67.2674 122.924 66.7135C123.239 66.3709 123.577 66.0505 123.937 65.7546C124.664 65.231 125.649 65.0757 126.242 64.4046C126.771 63.8054 126.855 62.9263 126.731 62.1369C126.607 61.3476 126.303 60.5965 126.151 59.8121C125.958 58.8144 126.012 57.7847 126.308 56.8125C126.524 56.1064 126.868 55.4258 126.91 54.6887C126.996 53.1853 125.835 51.9278 124.719 50.9151C123.047 49.3981 120.457 48.4652 118.186 49.1742Z" fill="#2F2E41"/>
</g>
</g>
<defs>
<filter id="filter0_d" x="0" y="0" width="252" height="156.194" filterUnits="userSpaceOnUse" color-interpolation-filters="sRGB">
<feFlood flood-opacity="0" result="BackgroundImageFix"/>
<feColorMatrix in="SourceAlpha" type="matrix" values="0 0 0 0 0 0 0 0 0 0 0 0 0 0 0 0 0 0 127 0"/>
<feOffset dy="14"/>
<feGaussianBlur stdDeviation="4.5"/>
<feColorMatrix type="matrix" values="0 0 0 0 0 0 0 0 0 0 0 0 0 0 0 0 0 0 0.25 0"/>
<feBlend mode="normal" in2="BackgroundImageFix" result="effect1_dropShadow"/>
<feBlend mode="normal" in="SourceGraphic" in2="effect1_dropShadow" result="shape"/>
</filter>
<clipPath id="clip0">
<rect width="234" height="133.194" fill="white" transform="translate(9)"/>
</clipPath>
</defs>
</svg>
