<svg width="563" height="303" viewBox="0 0 563 303" fill="none" xmlns="http://www.w3.org/2000/svg">
<path d="M122.908 140.61C146.448 140.61 165.53 122.595 165.53 100.372C165.53 78.149 146.448 60.1338 122.908 60.1338C99.3692 60.1338 80.287 78.149 80.287 100.372C80.287 122.595 99.3692 140.61 122.908 140.61Z" fill="#A6F6F1"/>
<path d="M545.357 286.248C542.851 288.378 540.214 290.367 537.462 292.205C530.929 296.542 523.869 300.125 516.434 302.877C485.533 302.175 440.106 298.596 382.766 296.687C378.489 295.307 374.114 293.813 369.642 292.205C363.725 290.076 357.637 287.736 351.379 285.186C325.39 274.584 298.707 267.692 272.277 263.575C266.597 262.69 260.933 261.932 255.283 261.301C135.933 247.826 25.8703 287.418 13.1235 292.205H11.8944L19.7347 277.869L153.14 33.9322L184.338 109.552L194.294 133.69L221.736 98.14L235.905 79.7849L300.432 149.626L318.67 111.601L444.938 208.884L451.981 214.307L459.108 219.799L461.377 221.549L528.883 273.559L545.357 286.248Z" fill="#FFB9B9"/>
<path opacity="0.1" d="M141.246 83.0603L154.131 56.3909L171.973 95.2253L156.609 67.1522L141.246 83.0603Z" fill="black"/>
<path opacity="0.1" d="M272.277 263.575C266.597 262.69 260.933 261.932 255.283 261.301L194.294 133.69L272.277 263.575Z" fill="black"/>
<path opacity="0.1" d="M221.736 98.1398L235.905 87.7392L300.333 157.922L234.914 98.0326L221.736 98.1398Z" fill="black"/>
<path opacity="0.1" d="M300.43 149.624L429.188 266.003L411.577 269.925L300.43 149.624Z" fill="black"/>
<path d="M563 292.439C563 301.501 546.665 303.565 516.434 302.877C485.533 302.175 440.106 298.596 382.766 296.687C361.078 295.966 337.681 295.48 312.723 295.48C157.253 295.48 0 314.275 0 292.439C0 287.292 6.99785 282.379 19.7347 277.869C57.4993 264.496 145.706 254.704 251.378 253.127C256.185 253.052 261.027 252.997 265.904 252.963C271.068 252.921 276.266 252.901 281.5 252.902C323.512 252.902 363.378 254.194 399.185 256.51C399.299 256.519 399.408 256.528 399.522 256.533C402.396 256.72 405.243 256.914 408.061 257.113C411.139 257.333 414.183 257.559 417.195 257.792C417.814 257.838 418.434 257.885 419.048 257.937C419.494 257.969 419.94 258.007 420.382 258.044C421.194 258.105 422.007 258.171 422.81 258.241C422.838 258.24 422.866 258.241 422.894 258.246C424.371 258.367 425.838 258.489 427.295 258.61C427.449 258.625 427.602 258.639 427.756 258.648C470.105 262.274 505.104 267.425 528.883 273.559C550.64 279.169 563 285.598 563 292.439Z" fill="#FFE3ED"/>
<path d="M35.1313 214.376C35.1313 244.329 55.0348 268.565 79.6316 268.565Z" fill="#A6F6F1"/>
<path d="M79.6316 268.565C79.6316 238.277 101.843 213.768 129.291 213.768Z" fill="#A6F6F1"/>
<path d="M51.2546 217.092C51.2546 245.543 63.9467 268.565 79.6316 268.565Z" fill="#A6F6F1"/>
<path d="M79.6316 268.565C79.6316 229.863 105.304 198.546 137.03 198.546Z" fill="#A6F6F1"/>
<path d="M70.2699 268.948C70.2699 268.948 76.5807 268.764 78.4827 267.485C80.3846 266.207 88.1903 264.68 88.6622 266.731C89.134 268.781 98.1462 276.93 91.0213 276.984C83.8964 277.038 74.4661 275.936 72.5679 274.844C70.6696 273.753 70.2699 268.948 70.2699 268.948Z" fill="#FFB9B9"/>
<path opacity="0.2" d="M91.1485 276.27C84.0235 276.324 74.5933 275.222 72.695 274.131C71.2493 273.299 70.6733 270.316 70.4806 268.94C70.3471 268.945 70.2699 268.948 70.2699 268.948C70.2699 268.948 70.6696 273.753 72.5679 274.844C74.4661 275.936 83.8964 277.038 91.0213 276.984C93.078 276.968 93.7884 276.277 93.7494 275.254C93.4637 275.872 92.6793 276.258 91.1485 276.27Z" fill="black"/>
<path d="M378.086 210.165C378.086 240.118 397.989 264.355 422.586 264.355L378.086 210.165Z" fill="#A6F6F1"/>
<path d="M422.586 264.355C422.586 234.066 444.797 209.557 472.245 209.557L422.586 264.355Z" fill="#A6F6F1"/>
<path d="M394.209 212.881C394.209 241.332 406.901 264.355 422.586 264.355L394.209 212.881Z" fill="#A6F6F1"/>
<path d="M422.586 264.355C422.586 225.652 448.258 194.335 479.985 194.335L422.586 264.355Z" fill="#A6F6F1"/>
<path d="M413.224 264.737C413.224 264.737 419.535 264.553 421.437 263.274C423.339 261.996 431.145 260.469 431.616 262.52C432.088 264.57 441.101 272.719 433.976 272.773C426.851 272.827 417.42 271.725 415.522 270.633C413.624 269.542 413.224 264.737 413.224 264.737Z" fill="#FFB9B9"/>
<path opacity="0.2" d="M434.103 272.059C426.978 272.113 417.547 271.011 415.649 269.92C414.203 269.088 413.627 266.105 413.435 264.729C413.301 264.734 413.224 264.737 413.224 264.737C413.224 264.737 413.624 269.542 415.522 270.633C417.42 271.725 426.851 272.827 433.976 272.773C436.032 272.757 436.743 272.066 436.704 271.043C436.418 271.661 435.634 272.047 434.103 272.059Z" fill="#A6F6F1"/>
<path d="M247.304 206.093H238.383V221.106H247.304V206.093Z" fill="#2F2E41"/>
<path d="M242.843 211.769C243.807 211.769 244.589 211.031 244.589 210.121C244.589 209.211 243.807 208.474 242.843 208.474C241.879 208.474 241.098 209.211 241.098 210.121C241.098 211.031 241.879 211.769 242.843 211.769Z" fill="#F2F2F2"/>
<path d="M243.925 193.264C243.925 193.264 241.21 208.131 246.097 208.644C250.984 209.156 246.64 192.751 246.64 192.751L243.925 193.264Z" fill="#FFACAC"/>
<path d="M247.183 142.511C247.183 142.511 241.481 193.52 243.11 194.289C244.739 195.058 249.084 196.084 249.898 195.315C250.713 194.546 253.971 163.017 253.971 163.017L251.527 146.612L247.183 142.511Z" fill="#FFE3ED"/>
<path opacity="0.1" d="M247.204 142.148C247.204 142.148 241.431 203.984 243.08 204.916C244.729 205.848 249.128 207.091 249.953 206.159C250.777 205.227 254.076 167.007 254.076 167.007L251.602 147.12L247.204 142.148Z" fill="#FFE3ED"/>
<path d="M274.741 119.57H257.636V137H274.741V119.57Z" fill="#2F2E41"/>
<path d="M261.573 127.388C261.573 127.388 261.03 138.666 257.229 139.435C253.428 140.204 260.759 153.277 260.759 153.277L272.162 152.252L274.877 136.872C274.877 136.872 268.632 135.847 270.804 127.9L261.573 127.388Z" fill="#FFB9B9"/>
<path opacity="0.1" d="M261.573 127.388C261.573 127.388 261.03 138.666 257.229 139.435C253.428 140.204 260.759 153.277 260.759 153.277L272.162 152.252L274.877 136.872C274.877 136.872 268.632 135.847 270.804 127.9L261.573 127.388Z" fill="black"/>
<path d="M262.116 256.321L262.93 260.678L267.818 259.653L266.732 255.295L262.116 256.321Z" fill="#FFB9B9"/>
<path d="M277.592 249.656L275.963 254.27L281.122 256.833L281.393 252.989L277.592 249.656Z" fill="#FFB9B9"/>
<path d="M256.414 180.448C256.414 180.448 249.898 198.391 251.256 206.849C252.613 215.308 258.043 255.552 258.043 255.552C258.043 255.552 264.288 259.397 268.089 255.039L265.374 220.691C265.374 220.691 265.917 199.929 268.089 201.979C270.261 204.03 278.678 228.125 278.678 228.125L277.049 249.913C277.049 249.913 277.864 256.577 282.751 253.757L289.539 229.663C289.539 229.663 287.367 197.365 286.281 196.084C285.195 194.802 278.135 179.935 278.135 179.935L256.414 180.448Z" fill="#FFE3ED"/>
<path d="M267.139 132.386C271.488 132.386 275.013 129.058 275.013 124.953C275.013 120.847 271.488 117.519 267.139 117.519C262.79 117.519 259.265 120.847 259.265 124.953C259.265 129.058 262.79 132.386 267.139 132.386Z" fill="#FFB9B9"/>
<path d="M259.129 143.28C259.129 143.28 262.116 147.381 265.917 144.562C269.718 141.742 271.89 141.486 271.89 141.486L276.506 144.049L275.42 154.046L277.049 181.729C277.049 181.729 257.229 183.267 256.143 181.217C255.057 179.166 257.5 170.451 257.5 170.451L253.971 151.739V143.28H259.129Z" fill="#FFE3ED"/>
<path d="M265.374 150.714C265.374 150.714 260.487 136.616 258.858 136.359C257.229 136.103 252.613 139.179 252.613 139.179C252.613 139.179 245.825 141.229 245.825 142.511C245.825 143.793 246.911 143.793 246.911 143.793L250.713 150.714C250.713 150.714 252.342 156.865 251.799 160.967C251.471 163.432 251.38 165.92 251.527 168.4C251.527 168.4 245.554 202.235 248.541 203.261C251.527 204.286 251.527 205.311 251.527 205.311C251.527 205.311 255.871 207.618 256.686 206.593C257.5 205.568 265.374 161.479 265.374 161.479C265.374 161.479 269.447 154.046 265.374 150.714Z" fill="#FFE3ED"/>
<path d="M266.46 150.714C266.46 150.714 268.904 145.331 267.546 141.742C267.546 141.742 268.904 141.486 269.447 140.717C269.99 139.948 269.447 136.103 270.804 135.847C272.162 135.59 282.208 135.847 282.751 136.359C283.294 136.872 284.923 140.46 284.923 140.46H284.108L278.135 149.688C278.135 149.688 281.122 167.119 280.579 169.938C280.036 172.758 288.453 184.549 289.539 185.318C290.625 186.087 295.512 198.391 293.34 199.672C291.168 200.954 272.162 209.156 271.347 205.055C270.533 200.954 264.831 176.346 264.831 176.346C264.831 176.346 264.56 162.761 265.374 159.429C266.189 156.096 266.46 150.714 266.46 150.714Z" fill="#FFE3ED"/>
<path d="M279.221 191.726C279.221 191.726 273.52 209.413 279.221 208.644C284.923 207.875 283.565 191.213 283.565 191.213L279.221 191.726Z" fill="#FFB9B9"/>
<path d="M267.287 259.662C267.287 259.662 271.788 260.876 271.467 263.608C271.366 264.402 271.046 265.157 270.538 265.796C270.03 266.436 269.352 266.938 268.573 267.251C268.102 267.54 267.729 267.952 267.501 268.437C267.273 268.922 267.198 269.459 267.287 269.983C267.608 271.804 264.715 274.536 259.892 273.322C255.069 272.108 256.033 270.893 256.033 270.893C256.296 269.547 257.103 268.349 258.284 267.554C260.213 266.34 262.464 262.09 262.464 261.787C262.464 261.483 263.107 259.358 263.107 259.358C263.107 259.358 265.679 257.841 267.287 259.662Z" fill="#2F2E41"/>
<path d="M276.778 253.757C276.778 253.757 271.891 255.808 272.977 258.371C274.063 260.935 277.592 264.523 278.135 268.368C278.678 272.213 283.294 275.545 286.552 273.495C289.81 271.444 286.009 267.343 286.009 267.343C286.009 267.343 281.936 260.166 281.665 258.628C281.393 257.09 282.208 255.552 280.579 255.039C278.95 254.526 276.778 253.757 276.778 253.757Z" fill="#2F2E41"/>
<path opacity="0.1" d="M283.973 143.152C283.973 143.152 283.294 140.204 284.108 141.998C284.923 143.793 290.896 165.581 285.466 178.653C285.466 178.653 284.923 194.802 284.38 194.802C283.837 194.802 277.321 194.546 277.592 192.751C277.864 190.957 278.407 161.992 278.407 160.198C278.407 158.403 279.357 146.741 279.357 146.741L283.973 143.152Z" fill="black"/>
<path d="M282.751 138.666C283.621 139.686 284.351 140.806 284.923 141.998C285.737 143.793 291.711 165.581 286.281 178.653C286.281 178.653 285.738 194.802 285.194 194.802C284.651 194.802 278.135 194.546 278.407 192.751C278.678 190.957 279.221 161.992 279.221 160.198C279.221 158.403 277.592 146.356 277.592 146.356L282.751 138.666Z" fill="#FFE3ED"/>
<path d="M262.7 111.865C259.852 112.706 257.724 114.904 255.742 117.01C254.971 117.755 254.317 118.6 253.8 119.52C253.296 120.693 253.03 121.944 253.016 123.21C252.883 125.171 252.841 127.135 252.889 129.102C252.935 130.986 253.057 132.918 252.443 134.712C251.85 136.446 250.615 137.912 249.767 139.548C248.414 142.16 248.102 145.328 249.351 147.985C250.038 149.448 251.151 150.693 251.982 152.087C253.452 154.57 253.997 157.447 253.528 160.257L257.438 155.476C259.942 152.413 262.526 149.186 263.23 145.375C264.252 139.847 261.129 134.432 260.512 128.851C260.34 127.295 260.398 125.614 261.331 124.321C262.709 122.412 265.704 121.737 266.532 119.564C266.652 120.474 272.427 123.373 273.123 122.809C273.551 123.898 273.675 125.074 273.484 126.222C273.293 127.37 272.793 128.453 272.032 129.366C271.473 130.021 270.786 130.573 270.241 131.238C268.829 132.962 268.507 135.286 268.707 137.457C268.906 139.628 269.568 141.736 269.918 143.89C270.214 146.034 270.355 148.195 270.341 150.358C270.367 151.855 270.323 153.526 269.211 154.593C271.035 153.99 272.701 153.026 274.098 151.765C274.857 150.986 275.671 150.257 276.536 149.584C278.285 148.393 280.654 148.04 282.081 146.513C283.355 145.15 283.558 143.15 283.259 141.354C282.96 139.559 282.23 137.85 281.863 136.066C281.399 133.796 281.529 131.454 282.241 129.242C282.76 127.636 283.589 126.087 283.69 124.41C283.897 120.99 281.104 118.13 278.418 115.826C274.395 112.375 268.164 110.253 262.7 111.865Z" fill="#2F2E41"/>
</svg>
