<svg width="36" height="42" viewBox="0 0 36 42" fill="none" xmlns="http://www.w3.org/2000/svg">
<g clip-path="url(#clip0)">
<path d="M35.1895 22.8324C35.1404 22.5997 35.0898 22.3701 35.0377 22.1437C35.0376 22.1437 35.0375 22.1437 35.0374 22.1436C35.0373 22.1436 35.0372 22.1436 35.0372 22.1435C35.0371 22.1434 35.037 22.1434 35.037 22.1433C35.037 22.1432 35.0369 22.1431 35.037 22.143C34.3782 19.2772 33.4905 16.9273 32.4393 15.0105L29.6539 14.1321L31.7534 13.857C30.9047 12.5368 29.9693 11.4553 28.9753 10.5776L23.8593 11.1136L27.7209 9.59629C20.6242 4.70202 11.3201 8.63318 8.78481 9.86868C8.43709 10.0375 8.21701 10.1565 8.14658 10.1949C8.14585 10.1949 8.14585 10.1949 8.14512 10.1955C8.12971 10.2043 8.12238 10.2083 8.12238 10.2083L9.56167 10.8937H9.56241L35.1235 23.0665L35.1895 22.8324Z" fill="#FFB9B9"/>
<path d="M35.1896 22.8324C35.2226 22.712 35.2541 22.5914 35.2842 22.4706C35.2094 22.3703 35.1272 22.2607 35.0377 22.1437C35.0378 22.1437 35.0376 22.1437 35.0377 22.1437C35.0376 22.1437 35.0373 22.1436 35.0372 22.1435C35.0372 22.1436 35.0371 22.1434 35.0372 22.1435C35.0372 22.1434 35.037 22.1431 35.037 22.143C32.0894 18.2791 21.2852 5.65371 8.83985 9.9393H8.83912C8.60877 10.0187 8.37794 10.1039 8.14661 10.1949C8.14588 10.1949 8.14588 10.1949 8.14514 10.1955C7.9346 10.2783 7.72382 10.3662 7.51279 10.4592C7.40569 10.5056 7.29932 10.554 7.19221 10.6031C7.09905 10.6462 7.00662 10.6899 6.91345 10.7349C6.91345 10.7349 6.3838 10.8567 5.79033 11.3154C4.62466 12.218 3.21177 14.4233 5.08389 19.5725C5.08389 19.5725 6.74619 23.8386 5.91504 25.8199C5.08388 27.8 10.2373 30.0854 11.7317 25.8199C13.2274 21.5532 13.727 17.4391 13.727 17.4391C13.727 17.4391 15.4465 20.7609 15.2771 24.0921C15.2074 25.4574 15.3402 26.8241 15.7414 28.1389C15.7825 28.2768 15.8273 28.4147 15.872 28.5546C16.4127 30.2192 17.2563 32.3606 18.499 34.4315C19.0845 35.4182 19.7603 36.3576 20.5193 37.2394C21.5136 36.9432 22.4834 36.582 23.4214 36.1586C26.2794 34.8702 28.8028 33.0348 30.8215 30.7763C32.8402 28.5179 34.3072 25.8888 35.1235 23.0664L35.1896 22.8324Z" fill="#FFB9B9"/>
<path d="M7.41138 12.2587L6.74658 7.23056L9.57188 10.8874L7.41138 12.2587Z" fill="#A6F6F1"/>
<path d="M5.96271 12.6209L5.29791 7.59277L8.1232 11.2496L5.96271 12.6209Z" fill="#A6F6F1"/>
<path d="M4.51564 17.3063L-2.58282 8.84705L4.60637 14.7656L4.51564 17.3063Z" fill="#A6F6F1"/>
</g>
<defs>
<clipPath id="clip0">
<rect width="48.8571" height="50.0584" fill="white" transform="translate(-13 -9)"/>
</clipPath>
</defs>
</svg>
