<svg width="90" height="65" viewBox="0 0 90 65" fill="none" xmlns="http://www.w3.org/2000/svg">
<path d="M89.0003 34.0419C88.885 33.5445 88.7663 33.0538 88.6442 32.5698L88.643 32.5694L88.6425 32.5683C87.0977 26.4427 85.0163 21.4196 82.5513 17.3225L76.0197 15.4449L80.9429 14.8569C78.9526 12.0349 76.7594 9.72323 74.4285 7.84714L62.4318 8.99292L71.487 5.74966C54.8458 -4.71185 33.0285 3.691 27.0835 6.3319C26.2681 6.69274 25.7521 6.9472 25.5869 7.02914C25.5869 7.02914 25.5852 7.02914 25.5835 7.03058C25.5474 7.04927 25.5302 7.05789 25.5302 7.05789L28.9052 8.52282H28.9069L88.8455 34.5422L89.0003 34.0419Z" fill="#FFB9B9"/>
<path d="M89.0003 34.0419C89.0777 33.7846 89.1516 33.5267 89.2221 33.2685C89.0467 33.0542 88.8541 32.8199 88.6442 32.5698L88.643 32.5694L88.6425 32.5683C81.7307 24.3093 56.3956 -2.67762 27.2125 6.48285H27.2108C26.6706 6.65249 26.1294 6.83458 25.5869 7.02914C25.5869 7.02914 25.5852 7.02914 25.5835 7.03058C25.0898 7.2074 24.5955 7.39525 24.1007 7.59412C23.8495 7.69332 23.6001 7.79683 23.3489 7.90177C23.1305 7.99378 22.9137 8.08723 22.6953 8.18355C22.6953 8.18355 21.4533 8.44376 20.0616 9.42421C17.3283 11.3535 14.0152 16.0674 18.4051 27.0738C18.4051 27.0738 22.3031 36.1926 20.3541 40.4278C18.4051 44.6601 30.4895 49.5451 33.9935 40.4278C37.501 31.3076 38.6725 22.5137 38.6725 22.5137C38.6725 22.5137 42.7046 29.614 42.3072 36.7345C42.1438 39.6529 42.4552 42.5741 43.3961 45.3847C43.4924 45.6794 43.5974 45.9741 43.7023 46.2731C44.9701 49.8312 46.9483 54.4085 49.8623 58.835C51.2352 60.9442 52.82 62.9521 54.5997 64.837C56.9313 64.2039 59.2055 63.4318 61.4048 62.5267C68.1066 59.7726 74.0238 55.8496 78.7575 51.0221C83.4911 46.1946 86.9311 40.575 88.8455 34.5422L89.0003 34.0419Z" fill="#FFB9B9"/>
<path d="M23.8628 11.4406L22.3039 0.69286L28.929 8.50929L23.8628 11.4406Z" fill="#FFB9B9"/>
<path d="M20.4659 12.2148L18.907 1.4671L25.5321 9.28353L20.4659 12.2148Z" fill="#FFB9B9"/>
<path d="M17.0726 22.2298L0.427307 4.14814L17.2853 16.7991L17.0726 22.2298Z" fill="#FFB9B9"/>
</svg>
